<?xml version="1.0" encoding="iso-8859-1"?>
<!-- Generator: Adobe Illustrator 19.0.0, SVG Export Plug-In . SVG Version: 6.00 Build 0)  -->
<svg version="1.1" id="Capa_1" xmlns="http://www.w3.org/2000/svg" xmlns:xlink="http://www.w3.org/1999/xlink" x="0px" y="0px"
	 viewBox="0 0 471.477 471.477" style="enable-background:new 0 0 471.477 471.477;" xml:space="preserve">
<path style="fill:#F9B310;" d="M181.464,233.738c-28.4,0-45.28-16.96-45.28-45.28v-65.6c0-28.4,16.96-45.28,45.28-45.28h108.72
	c28.4,0,45.28,16.96,45.28,45.28v65.2c0,28.4-16.96,45.28-45.28,45.28L181.464,233.738z M281.544,113.258c-13.255,0-24,10.745-24,24
	s10.745,24,24,24s24-10.745,24-24S294.799,113.258,281.544,113.258z M189.944,113.258c-13.255,0-24,10.745-24,24s10.745,24,24,24
	s24-10.745,24-24c0-13.224-10.696-23.956-23.92-24H189.944z"/>
<g>
	<circle style="fill:#FFFFFF;" cx="190.024" cy="137.258" r="23.92"/>
	<circle style="fill:#FFFFFF;" cx="190.024" cy="137.258" r="15.92"/>
</g>
<path style="fill:#F9B310;" d="M125.864,184.938c-19.352-5.605-30.496-25.836-24.892-45.188
	c3.48-12.016,12.875-21.411,24.892-24.892l10.24-3.04v76.24L125.864,184.938z"/>
<g>
	<circle style="fill:#FFFFFF;" cx="281.544" cy="137.258" r="23.92"/>
	<circle style="fill:#FFFFFF;" cx="281.544" cy="137.258" r="15.92"/>
</g>
<g>
	<path style="fill:#F9B310;" d="M335.464,112.138l10.24,2.72c19.352,5.605,30.496,25.836,24.892,45.188
		c-3.48,12.016-12.875,21.411-24.892,24.892l-10.24,3.12V112.138z"/>
	<circle style="fill:#F9B310;" cx="235.784" cy="27.098" r="18.64"/>
</g>
<g>
	<circle style="fill:#B1523E;" cx="88.824" cy="256.778" r="23.04"/>
	<path style="fill:#B1523E;" d="M139.784,262.218v105.28c0.011,11.65,2.153,23.201,6.32,34.08l2,5.12h175.68l2-5.12
		c4.058-10.9,6.092-22.449,6-34.08v-105.28H139.784z"/>
	<circle style="fill:#B1523E;" cx="382.744" cy="256.778" r="23.04"/>
</g>
<path style="fill:#F9B310;" d="M235.784,463.578c-32.875-0.023-63.452-16.866-81.04-44.64l-8-12.32h177.92l-8,12.32
	C299.106,446.664,268.602,463.5,235.784,463.578L235.784,463.578z"/>
<g>
	<path style="fill:#58171D;" d="M190.024,169.178c17.673,0,32-14.327,32-32s-14.327-32-32-32s-32,14.327-32,32
		S172.351,169.178,190.024,169.178z M190.024,121.178c8.837,0,16,7.163,16,16s-7.163,16-16,16s-16-7.163-16-16
		c0.044-8.805,7.195-15.92,16-15.92V121.178z"/>
	<path style="fill:#58171D;" d="M281.544,169.178c17.673,0,32-14.327,32-32s-14.327-32-32-32s-32,14.327-32,32
		S263.871,169.178,281.544,169.178z M281.544,121.178c8.837,0,16,7.163,16,16s-7.163,16-16,16s-16-7.163-16-16
		c0.044-8.805,7.195-15.92,16-15.92V121.178z"/>
	<path style="fill:#58171D;" d="M128.344,193.818c2.4,35.12,28.48,48,53.04,48h108.8c36.56,0,51.2-24,53.04-48
		c24.213-4.401,40.274-27.598,35.872-51.811c-3.452-18.993-18.742-33.603-37.872-36.189c-5.28-19.52-20.48-36.16-51.04-36.16h-46.4
		v-17.6c14.034-4.418,21.829-19.377,17.41-33.41s-19.377-21.829-33.41-17.41s-21.829,19.377-17.41,33.41
		c2.613,8.298,9.112,14.798,17.41,17.41v17.2h-46.32c-21.6,0-44.32,9.92-51.2,36.16c-24.381,3.347-41.433,25.825-38.086,50.206
		c2.624,19.117,17.255,34.372,36.246,37.794L128.344,193.818z M363.784,149.898c-0.036,12.693-8.444,23.84-20.64,27.36v-54.72
		C355.34,126.058,363.748,137.204,363.784,149.898z M225.144,27.098c0-5.876,4.764-10.64,10.64-10.64s10.64,4.764,10.64,10.64
		s-4.764,10.64-10.64,10.64l0,0C229.908,37.738,225.144,32.974,225.144,27.098z M144.104,123.098c0-32.48,23.36-37.28,37.28-37.28
		h108.8c32.48,0,37.28,23.36,37.28,37.28v64.96c0,13.92-4.88,37.28-37.28,37.28h-108.72c-13.92,0-37.28-4.88-37.28-37.28
		L144.104,123.098z M128.104,123.098v54.72c-15.111-4.368-23.819-20.158-19.452-35.268
		C111.367,133.156,118.711,125.813,128.104,123.098z"/>
	<path style="fill:#58171D;" d="M281.544,190.938h-91.52c-4.418,0-8,3.582-8,8s3.582,8,8,8h91.52c4.418,0,8-3.582,8-8
		S285.962,190.938,281.544,190.938z"/>
	<path style="fill:#58171D;" d="M413.784,256.778c-0.153-17.142-14.173-30.915-31.315-30.762
		c-14.344,0.128-26.732,10.067-29.965,24.042l-21.36,4.16h-190.72l-21.36-4.16c-3.66-16.748-20.203-27.358-36.951-23.698
		s-27.358,20.203-23.698,36.951c2.488,11.384,11.142,20.416,22.409,23.388v59.76c-13.533,3.61-22.972,15.834-23.04,29.84v14.16
		c0,4.418,3.582,8,8,8s8-3.582,8-8v-14.24c0-8.306,6.734-15.04,15.04-15.04s15.04,6.734,15.04,15.04l0,0v14.24c0,4.418,3.582,8,8,8
		c4.418,0,8-3.582,8-8v-14.24c-0.068-14.006-9.507-26.23-23.04-29.84v-59.76c10.163-2.738,18.239-10.453,21.44-20.48l13.36,2.64
		v98.72c0.016,14.473,3.068,28.781,8.96,42v0.72c23.619,52.357,85.21,75.653,137.566,52.034
		c23.106-10.424,41.61-28.927,52.034-52.034l0.4-0.88c5.955-13.151,9.089-27.404,9.2-41.84v-98.72l13.36-2.64
		c3.201,10.027,11.277,17.742,21.44,20.48v59.76c-13.533,3.61-22.972,15.834-23.04,29.84v14.24c0,4.418,3.582,8,8,8s8-3.582,8-8
		v-14.24c0.008-8.306,6.748-15.034,15.054-15.026c8.295,0.008,15.018,6.731,15.026,15.026v14.24c0,4.418,3.582,8,8,8s8-3.582,8-8
		v-14.24c-0.068-14.006-9.507-26.23-23.04-29.84v-59.76C404.18,283.069,413.696,270.829,413.784,256.778L413.784,256.778z
		 M88.824,271.818c-8.306,0-15.04-6.734-15.04-15.04c0-8.306,6.734-15.04,15.04-15.04s15.04,6.734,15.04,15.04
		C103.864,265.084,97.13,271.818,88.824,271.818L88.824,271.818z M235.784,455.578c-30.139-0.001-58.182-15.425-74.32-40.88h148.64
		C293.966,440.152,265.923,455.577,235.784,455.578z M323.784,367.578c-0.039,10.668-2.018,21.24-5.84,31.2h-164.48
		c-3.822-9.96-5.801-20.532-5.84-31.2v-97.36h176.16V367.578z M382.584,271.578c-8.306,0-15.04-6.734-15.04-15.04
		c0-8.306,6.734-15.04,15.04-15.04c8.306,0,15.04,6.734,15.04,15.04c0.133,8.305-6.492,15.146-14.797,15.279
		c-0.028,0-0.055,0.001-0.083,0.001L382.584,271.578z"/>
</g>
<path style="fill:#FFFFFF;" d="M210.744,385.738c3.272,2.952,8.316,2.702,11.28-0.56l42.64-47.2c2.96-3.28,2.701-8.339-0.579-11.299
	c-1.465-1.322-3.367-2.056-5.341-2.061h-24l29.44-30.24c2.83-3.393,2.375-8.437-1.018-11.268c-3.034-2.531-7.461-2.468-10.422,0.148
	l-42.64,43.84c-3.093,3.155-3.042,8.22,0.113,11.313c1.507,1.477,3.537,2.299,5.647,2.287h24.64l-30.32,33.76
	C207.232,377.73,207.482,382.774,210.744,385.738L210.744,385.738z"/>
<g>
</g>
<g>
</g>
<g>
</g>
<g>
</g>
<g>
</g>
<g>
</g>
<g>
</g>
<g>
</g>
<g>
</g>
<g>
</g>
<g>
</g>
<g>
</g>
<g>
</g>
<g>
</g>
<g>
</g>
</svg>
